<?xml version="1.0" encoding="UTF-8" standalone="no"?>
<svg
   width="200"
   height="200"
   viewBox="0 0 200 200"
   version="1.1"
   id="svg6"
   sodipodi:docname="logo.svg"
   inkscape:version="1.3 (1:1.3+202307231459+0e150ed6c4)"
   inkscape:export-filename="logo.png"
   inkscape:export-xdpi="96"
   inkscape:export-ydpi="96"
   xmlns:inkscape="http://www.inkscape.org/namespaces/inkscape"
   xmlns:sodipodi="http://sodipodi.sourceforge.net/DTD/sodipodi-0.dtd"
   xmlns="http://www.w3.org/2000/svg"
   xmlns:svg="http://www.w3.org/2000/svg">
  <defs
     id="defs6" />
  <sodipodi:namedview
     id="namedview6"
     pagecolor="#ffffff"
     bordercolor="#000000"
     borderopacity="0.25"
     inkscape:showpageshadow="2"
     inkscape:pageopacity="0.0"
     inkscape:pagecheckerboard="0"
     inkscape:deskcolor="#d1d1d1"
     inkscape:zoom="2.8461048"
     inkscape:cx="187.44918"
     inkscape:cy="125.25892"
     inkscape:window-width="1920"
     inkscape:window-height="1008"
     inkscape:window-x="1920"
     inkscape:window-y="0"
     inkscape:window-maximized="1"
     inkscape:current-layer="svg6" />
  <!-- Circle background -->
  <!-- Calculator icon -->
  <!-- Text -->
  <rect
     style="fill:#3498db;fill-opacity:1;stroke-width:0.97552"
     id="rect6"
     width="192.4537"
     height="192.98154"
     x="3.7605386"
     y="3.4266481"
     ry="16.608936" />
  <rect
     style="fill:#ecf0f1;fill-opacity:1"
     id="rect7"
     width="176.12195"
     height="61.684849"
     x="11.100701"
     y="10.163523"
     ry="17.025726" />
  <rect
     style="fill:#ecf0f1;fill-opacity:1;stroke-width:1.55046"
     id="rect8"
     width="50.811619"
     height="48.782639"
     x="12.810394"
     y="79.55056"
     ry="11.939652" />
  <rect
     style="fill:#ecf0f1;fill-opacity:1;stroke-width:1.55046"
     id="rect9"
     width="50.811619"
     height="48.782639"
     x="74.828781"
     y="79.55056"
     ry="11.939652" />
  <rect
     style="fill:#ecf0f1;fill-opacity:1;stroke-width:1.55046"
     id="rect10"
     width="49.623554"
     height="109.79551"
     x="136.84715"
     y="79.55056"
     ry="11.939652" />
  <rect
     style="fill:#ecf0f1;fill-opacity:1;stroke-width:1.55046"
     id="rect11"
     width="50.811619"
     height="48.782639"
     x="12.810394"
     y="141.56895"
     ry="11.939652" />
  <rect
     style="fill:#ecf0f1;fill-opacity:1;stroke-width:1.55046"
     id="rect12"
     width="50.811619"
     height="48.782639"
     x="74.828781"
     y="141.56895"
     ry="11.939652" />
  <text
     xml:space="preserve"
     style="font-size:24.2334px;fill:#000000;fill-opacity:1;stroke-width:2.01944"
     x="18.260723"
     y="48.760063"
     id="text13"><tspan
       sodipodi:role="line"
       id="tspan13"
       x="18.260723"
       y="48.760063"
       style="stroke-width:2.01944" /></text>
  <path
     d="M 35.158203 84.699219 L 35.158203 101.35156 L 18.505859 101.35156 L 18.505859 106.43359 L 35.158203 106.43359 L 35.158203 123.08594 L 40.179688 123.08594 L 40.179688 106.43359 L 56.832031 106.43359 L 56.832031 101.35156 L 40.179688 101.35156 L 40.179688 84.699219 L 35.158203 84.699219 z M 87.371094 100.16211 L 87.371094 108.02148 L 113.19922 108.02148 L 113.19922 100.16211 L 87.371094 100.16211 z M 147.21875 125.62695 L 147.21875 129.48633 L 176.67383 129.48633 L 176.67383 125.62695 L 147.21875 125.62695 z M 147.21875 135.00195 L 147.21875 138.90625 L 176.67383 138.90625 L 176.67383 135.00195 L 147.21875 135.00195 z M 104.17969 146.69141 L 92.232422 185.35938 L 96.138672 185.35938 L 108.08594 146.69141 L 104.17969 146.69141 z M 22.888672 149.60156 L 34.787109 165.56641 L 21.78125 183.08594 L 28.269531 183.08594 L 38.015625 169.93164 L 47.761719 183.08594 L 54.248047 183.08594 L 41.513672 165.89453 L 53.621094 149.60156 L 47.132812 149.60156 L 38.253906 161.53125 L 29.375 149.60156 L 22.888672 149.60156 z "
     id="path1" />
</svg>
